Coordinates
version=1
nRows=11
nColumns=36
inDegrees=yes

Units are S.I. units (second, meters, Newtons, ...)
If the header above contains a line with 'inDegrees', this indicates whether rotational values are in degrees (yes) or radians (no).

endheader
time	pelvis_tilt	pelvis_list	pelvis_rotation	pelvis_tx	pelvis_ty	pelvis_tz	hip_flexion_r	hip_adduction_r	hip_rotation_r	knee_angle_r	knee_angle_r_beta	ankle_angle_r	subtalar_angle_r	mtp_angle_r	hip_flexion_l	hip_adduction_l	hip_rotation_l	knee_angle_l	knee_angle_l_beta	ankle_angle_l	subtalar_angle_l	mtp_angle_l	lumbar_extension	lumbar_bending	lumbar_rotation	arm_flex_r	arm_add_r	arm_rot_r	elbow_flex_r	pro_sup_r	arm_flex_l	arm_add_l	arm_rot_l	elbow_flex_l	pro_sup_l
      0.00000000	     -6.36007109	      4.74839301	     -5.03148150	     -0.34523146	      1.20202670	     -0.05784252	      8.05040788	     -2.10586888	      9.38104873	      2.93238811	      0.05117983	      0.04819328	    -26.33897714	     -5.60301989	      8.97306432	      2.48456468	      5.05230580	      7.39923329	      0.12914098	      5.12197967	    -12.20554189	     -5.60301989	     -6.99861286	     -3.23274091	     -0.24332797	      6.51433988	     -7.38716450	     14.50768915	     24.36668629	     79.20276756	      3.48096253	     -6.62573398	     14.37512097	     24.91236185	     71.38260955
      0.01666670	     -8.83453451	      4.39834971	     -6.51277082	     -0.34471222	      1.19749210	     -0.05712345	     11.27810152	     -0.98203928	     11.06948210	      4.30117519	      0.07506967	      3.84414136	    -24.75563871	     -6.46108362	     11.39451902	      1.89710799	      4.97124235	      6.92123278	      0.12079830	      5.55144637	    -11.58258640	     -6.46108362	     -3.89988469	     -1.94626502	      0.91799872	      6.30144064	     -6.49559769	      8.67877910	     25.06413269	     83.00639081	      2.33364729	     -4.95282088	      7.96549367	     24.79404576	     74.46337413
      0.03333330	     -8.94547842	      4.87269091	     -7.05513850	     -0.33120559	      1.19529077	     -0.05508918	     10.48379708	     -1.56242004	     11.34192332	      3.06110883	      0.05342643	      4.27472273	    -23.59004608	     -6.48216590	     10.68029366	      2.20253002	      4.80813821	      6.00528028	      0.10481191	      6.45925858	    -11.04127079	     -6.48216590	     -2.68392307	     -2.58101665	      1.70536083	      5.93041217	     -5.78034737	      8.05944110	     25.16797664	     83.15701968	      1.47040930	     -4.87607776	      7.63229973	     24.57539549	     74.56239865
      0.05000000	     -8.65292448	      4.99165696	     -7.94843894	     -0.33933514	      1.19732207	     -0.05774513	     10.01173133	     -1.69950273	     11.28800183	      2.68485595	      0.04685958	      4.81764812	    -22.22039730	     -6.52118749	      9.76916158	      2.38520261	      4.27812061	      4.89820206	      0.08548975	      6.95394137	    -10.26999061	     -6.52118749	     -2.92423710	     -2.69755298	      3.03440408	      6.12251554	     -5.67234766	      6.91682556	     26.00627008	     83.57494627	      1.44530345	     -4.69385722	      7.18137137	     25.42719558	     74.80075785
      0.06666670	     -8.71365144	      4.86493273	     -8.49656389	     -0.34621265	      1.19002534	     -0.06040225	     10.29803613	     -1.58320455	     11.62512178	      2.52483372	      0.04406666	      4.50506840	    -22.27011633	     -6.54410163	      9.83288308	      2.33899328	      4.09657254	      4.44750454	      0.07762360	      7.28067472	     -9.94994177	     -6.54410163	     -2.84023282	     -2.40633814	      3.63188887	      6.59133094	     -5.63150656	      6.66151112	     26.24418343	     82.74362350	      1.57917269	     -4.50871327	      7.17869737	     25.90010092	     74.09469674
      0.08333330	     -8.51658713	      4.67927877	     -8.74518250	     -0.34031006	      1.19511214	     -0.05741561	     10.17295143	     -1.41387489	     11.65911160	      2.70662647	      0.04723954	      4.32659298	    -22.19247101	     -6.54769332	      9.53198688	      2.23603190	      4.27752664	      4.20446348	      0.07338173	      7.41654544	     -9.80087679	     -6.54769332	     -2.47227905	     -2.19604054	      3.80607225	      6.51907396	     -5.45164840	      6.74352231	     26.19547238	     82.84063485	      1.65647315	     -4.52458131	      7.22809842	     26.08652534	     74.14564737
      0.10000000	     -8.25578002	      4.49356124	     -8.95084445	     -0.33340920	      1.19360441	     -0.05984193	      9.70045659	     -1.34486168	     11.69205840	      2.77858239	      0.04849541	      4.26497053	    -22.12028817	     -6.56143616	      8.96412651	      2.13991579	      4.10471892	      3.98541635	      0.06955864	      7.69046943	     -9.40854429	     -6.56143616	     -2.01665496	     -1.95202806	      4.51628109	      6.16493623	     -5.61789184	      7.02660542	     25.86250302	     83.20733520	      1.56514930	     -4.49911585	      7.40594381	     26.95001881	     74.33185297
      0.11666670	     -7.77936547	      4.41236051	     -9.01487751	     -0.33434469	      1.19600603	     -0.06021957	      8.99494997	     -1.46289617	     11.58285344	      2.70840356	      0.04727056	      4.28423422	    -21.91464590	     -7.27437896	      8.28646046	      2.20289961	      4.09405550	      3.92163107	      0.06844537	      8.02712149	     -8.83269715	     -7.27437896	     -1.79339611	     -1.95335360	      4.35568053	      6.34520449	     -5.43058957	      7.71430099	     25.18811711	     88.27746325	      1.24780992	     -4.62832022	      6.75825067	     27.99450127	     76.88141659
      0.13333330	     -7.90669553	      4.37049227	     -8.91124061	     -0.34090644	      1.19096793	     -0.06338676	      9.27538989	     -1.46622396	     11.52314002	      3.05630367	      0.05334256	      4.39328472	    -22.14526221	     -7.29727662	      8.47247170	      2.25015215	      4.40384432	      4.01789589	      0.07012551	      8.01962542	     -9.22707515	     -7.29727662	     -1.09519088	     -1.90885228	      4.44744245	      6.49674187	     -5.37561353	      9.20735151	     24.59266425	     86.77928411	      1.66518781	     -4.84739057	      7.31463060	     28.41370012	     75.96523169
      0.15000000	     -7.51708415	      4.20505553	     -8.49977519	     -0.32815104	      1.19691617	     -0.06363251	      8.49416790	     -1.52460046	     11.27404215	      2.86821806	      0.05005985	      4.19182318	    -22.37599505	     -7.30398956	      7.90125775	      2.26156717	      4.86405237	      4.08838319	      0.07135575	      8.16614493	     -8.94557770	     -7.30398956	     -0.78685063	     -1.88544663	      4.48029041	      6.16152956	     -5.18338947	      9.52460125	     24.31097921	     86.94777144	      1.63831236	     -4.74752410	      7.19946429	     28.59588350	     76.06590898
      0.16666670	     -7.47882569	      4.03655214	     -8.05633132	     -0.32814543	      1.19760732	     -0.06993456	      8.01088267	     -1.57711271	     10.92713373	      2.68411335	      0.04684662	      4.08689941	    -22.45333932	     -7.30537014	      7.64847711	      2.28976385	      5.26095575	      3.95763822	      0.06907382	      8.19221549	     -8.75086749	     -7.30537014	     -0.13509032	     -1.63903934	      4.50196794	      5.80841965	     -5.06703131	      9.71800001	     24.23933638	     87.00208887	      1.82217028	     -4.54462067	      7.20638854	     28.90112929	     76.09643524
